<svg width="39" height="39" viewBox="0 0 39 39" fill="none" xmlns="http://www.w3.org/2000/svg">
<g id="heart" style="mix-blend-mode:overlay">
<path id="Vector" d="M33.1197 7.5258C32.3138 6.71953 31.3569 6.07995 30.3038 5.64358C29.2506 5.20721 28.1218 4.9826 26.9819 4.9826C25.8419 4.9826 24.7131 5.20721 23.66 5.64358C22.6068 6.07995 21.65 6.71953 20.8441 7.5258L19.1716 9.19831L17.4991 7.5258C15.8712 5.89796 13.6634 4.98345 11.3613 4.98345C9.05917 4.98345 6.85135 5.89796 5.2235 7.5258C3.59566 9.15364 2.68115 11.3615 2.68115 13.6636C2.68115 15.9657 3.59566 18.1735 5.2235 19.8014L6.89601 21.4739L19.1716 33.7494L31.4472 21.4739L33.1197 19.8014C33.9259 18.9955 34.5655 18.0386 35.0019 16.9855C35.4383 15.9324 35.6629 14.8036 35.6629 13.6636C35.6629 12.5236 35.4383 11.3948 35.0019 10.3417C34.5655 9.28854 33.9259 8.33169 33.1197 7.5258V7.5258Z" stroke="#050505" stroke-width="3.26323" stroke-linecap="round" stroke-linejoin="round"/>
</g>
</svg>
